STARTFONT 2.1
FONT -Mezgrman-FIS_ET423n_Large-Regular-R-Normal--16-150-75-75-P-100-ISO8859-1
SIZE 15 75 75
FONTBOUNDINGBOX 12 15 0 -2
COMMENT "Generated by fontforge, http://fontforge.sourceforge.net"
COMMENT "Copyright (c) 2016, Julian Metzler"
STARTPROPERTIES 29
FOUNDRY "Mezgrman"
FAMILY_NAME "FIS_ET423n_Large"
WEIGHT_NAME "Regular"
SLANT "R"
SETWIDTH_NAME "Normal"
ADD_STYLE_NAME ""
PIXEL_SIZE 16
POINT_SIZE 150
RESOLUTION_X 75
RESOLUTION_Y 75
SPACING "P"
AVERAGE_WIDTH 100
CHARSET_REGISTRY "ISO8859"
CHARSET_ENCODING "1"
FONTNAME_REGISTRY ""
CHARSET_COLLECTIONS "ISOLatin1Encoding"
FONT_NAME "FIS_ET423n_Large"
FACE_NAME "FIS_ET423n_Large"
COPYRIGHT "Copyright (c) 2016, Julian Metzler"
FONT_VERSION "001.000"
FONT_ASCENT 13
FONT_DESCENT 3
UNDERLINE_POSITION -2
UNDERLINE_THICKNESS 1
RAW_ASCENT 800
RAW_DESCENT 200
NORM_SPACE 8
AVG_LOWERCASE_WIDTH 105
AVG_UPPERCASE_WIDTH 116
ENDPROPERTIES
CHARS 38
STARTCHAR space
ENCODING 32
SWIDTH 500 0
DWIDTH 8 0
BBX 1 1 7 0
BITMAP
00
ENDCHAR
STARTCHAR period
ENCODING 46
SWIDTH 312 0
DWIDTH 5 0
BBX 3 2 0 -2
BITMAP
E0
E0
ENDCHAR
STARTCHAR zero
ENCODING 48
SWIDTH 625 0
DWIDTH 10 0
BBX 8 15 0 -2
BITMAP
3C
7E
E7
C3
C3
C3
C3
C3
C3
C3
C3
C3
E7
7E
3C
ENDCHAR
STARTCHAR one
ENCODING 49
SWIDTH 375 0
DWIDTH 6 0
BBX 4 15 0 -2
BITMAP
30
70
F0
F0
30
30
30
30
30
30
30
30
30
30
30
ENDCHAR
STARTCHAR two
ENCODING 50
SWIDTH 625 0
DWIDTH 10 0
BBX 8 15 0 -2
BITMAP
3C
7E
E7
C3
03
07
0E
1C
38
70
E0
C0
C0
FF
FF
ENDCHAR
STARTCHAR three
ENCODING 51
SWIDTH 625 0
DWIDTH 10 0
BBX 8 15 0 -2
BITMAP
3C
7E
E7
C3
03
07
1E
1E
07
03
03
C3
E7
7E
3C
ENDCHAR
STARTCHAR four
ENCODING 52
SWIDTH 625 0
DWIDTH 10 0
BBX 8 15 0 -2
BITMAP
0C
0C
18
18
30
30
60
66
C6
C6
FF
FF
06
06
06
ENDCHAR
STARTCHAR five
ENCODING 53
SWIDTH 625 0
DWIDTH 10 0
BBX 8 15 0 -2
BITMAP
FF
FF
C0
C0
C0
C0
FC
FE
07
03
03
C3
E7
7E
3C
ENDCHAR
STARTCHAR six
ENCODING 54
SWIDTH 625 0
DWIDTH 10 0
BBX 8 15 0 -2
BITMAP
3C
7E
E7
C3
C0
C0
DC
FE
E7
C3
C3
C3
E7
7E
3C
ENDCHAR
STARTCHAR seven
ENCODING 55
SWIDTH 625 0
DWIDTH 10 0
BBX 8 15 0 -2
BITMAP
FF
FF
03
03
06
0C
18
18
30
30
60
60
60
60
60
ENDCHAR
STARTCHAR eight
ENCODING 56
SWIDTH 625 0
DWIDTH 10 0
BBX 8 15 0 -2
BITMAP
3C
7E
E7
C3
C3
E7
7E
3C
7E
E7
C3
C3
E7
7E
3C
ENDCHAR
STARTCHAR nine
ENCODING 57
SWIDTH 625 0
DWIDTH 10 0
BBX 8 15 0 -2
BITMAP
3C
7E
E7
C3
C3
C3
E7
7F
3B
03
03
C3
E7
7E
3C
ENDCHAR
STARTCHAR colon
ENCODING 58
SWIDTH 250 0
DWIDTH 4 0
BBX 2 8 0 -1
BITMAP
C0
C0
00
00
00
00
C0
C0
ENDCHAR
STARTCHAR D
ENCODING 68
SWIDTH 812 0
DWIDTH 13 0
BBX 11 15 0 -2
BITMAP
FE00
E380
E1C0
E0E0
E0E0
E0E0
E0E0
E0E0
E0E0
E0E0
E0E0
E0E0
E1C0
E380
FE00
ENDCHAR
STARTCHAR F
ENCODING 70
SWIDTH 625 0
DWIDTH 10 0
BBX 8 15 0 -2
BITMAP
FF
E0
E0
E0
E0
E0
FE
E0
E0
E0
E0
E0
E0
E0
E0
ENDCHAR
STARTCHAR H
ENCODING 72
SWIDTH 750 0
DWIDTH 12 0
BBX 10 15 0 -2
BITMAP
E1C0
E1C0
E1C0
E1C0
E1C0
E1C0
FFC0
E1C0
E1C0
E1C0
E1C0
E1C0
E1C0
E1C0
E1C0
ENDCHAR
STARTCHAR L
ENCODING 76
SWIDTH 625 0
DWIDTH 10 0
BBX 8 15 0 -2
BITMAP
E0
E0
E0
E0
E0
E0
E0
E0
E0
E0
E0
E0
E0
E0
FF
ENDCHAR
STARTCHAR N
ENCODING 78
SWIDTH 750 0
DWIDTH 12 0
BBX 10 15 0 -2
BITMAP
E1C0
E1C0
F1C0
F1C0
F9C0
E9C0
EDC0
E5C0
E7C0
E3C0
E3C0
E1C0
E1C0
E1C0
E1C0
ENDCHAR
STARTCHAR S
ENCODING 83
SWIDTH 812 0
DWIDTH 13 0
BBX 11 15 0 -2
BITMAP
3F80
70C0
E060
E000
E000
F800
7E00
3F80
0FC0
03E0
00E0
00E0
C0E0
61C0
3F80
ENDCHAR
STARTCHAR a
ENCODING 97
SWIDTH 750 0
DWIDTH 12 0
BBX 10 9 0 -2
BITMAP
7F00
C380
0380
0F80
7B80
E380
E380
E380
7DC0
ENDCHAR
STARTCHAR c
ENCODING 99
SWIDTH 687 0
DWIDTH 11 0
BBX 9 9 0 -2
BITMAP
3F00
7380
E000
E000
E000
E000
E000
7380
3F00
ENDCHAR
STARTCHAR d
ENCODING 100
SWIDTH 750 0
DWIDTH 12 0
BBX 10 15 0 -2
BITMAP
01C0
01C0
01C0
01C0
01C0
01C0
3DC0
73C0
E1C0
E1C0
E1C0
E1C0
E1C0
73C0
3DC0
ENDCHAR
STARTCHAR e
ENCODING 101
SWIDTH 750 0
DWIDTH 12 0
BBX 10 9 0 -2
BITMAP
3F00
7380
E1C0
E1C0
FFC0
E000
E000
7380
3F00
ENDCHAR
STARTCHAR f
ENCODING 102
SWIDTH 562 0
DWIDTH 9 0
BBX 7 15 0 -2
BITMAP
1E
38
38
38
38
38
FE
38
38
38
38
38
38
38
38
ENDCHAR
STARTCHAR h
ENCODING 104
SWIDTH 750 0
DWIDTH 12 0
BBX 10 15 0 -2
BITMAP
E000
E000
E000
E000
E000
E000
EF00
F380
E1C0
E1C0
E1C0
E1C0
E1C0
E1C0
E1C0
ENDCHAR
STARTCHAR i
ENCODING 105
SWIDTH 312 0
DWIDTH 5 0
BBX 3 13 0 -2
BITMAP
E0
E0
00
00
E0
E0
E0
E0
E0
E0
E0
E0
E0
ENDCHAR
STARTCHAR k
ENCODING 107
SWIDTH 687 0
DWIDTH 11 0
BBX 9 15 0 -2
BITMAP
E000
E000
E000
E000
E000
E000
E380
E700
EE00
FC00
F800
FC00
EE00
E700
E380
ENDCHAR
STARTCHAR l
ENCODING 108
SWIDTH 312 0
DWIDTH 5 0
BBX 3 15 0 -2
BITMAP
E0
E0
E0
E0
E0
E0
E0
E0
E0
E0
E0
E0
E0
E0
E0
ENDCHAR
STARTCHAR m
ENCODING 109
SWIDTH 875 0
DWIDTH 14 0
BBX 12 9 0 -2
BITMAP
EDE0
F770
E670
E670
E670
E670
E670
E670
E670
ENDCHAR
STARTCHAR n
ENCODING 110
SWIDTH 687 0
DWIDTH 11 0
BBX 9 9 0 -2
BITMAP
EF00
F380
E380
E380
E380
E380
E380
E380
E380
ENDCHAR
STARTCHAR o
ENCODING 111
SWIDTH 750 0
DWIDTH 12 0
BBX 10 9 0 -2
BITMAP
3F00
7380
E1C0
E1C0
E1C0
E1C0
E1C0
7380
3F00
ENDCHAR
STARTCHAR r
ENCODING 114
SWIDTH 500 0
DWIDTH 8 0
BBX 6 9 0 -2
BITMAP
EC
FC
F0
E0
E0
E0
E0
E0
E0
ENDCHAR
STARTCHAR s
ENCODING 115
SWIDTH 687 0
DWIDTH 11 0
BBX 9 9 0 -2
BITMAP
7F00
E380
E000
FC00
7F00
0780
0380
E380
7F00
ENDCHAR
STARTCHAR t
ENCODING 116
SWIDTH 562 0
DWIDTH 9 0
BBX 7 15 0 -2
BITMAP
38
38
38
38
38
38
FE
38
38
38
38
38
38
38
1E
ENDCHAR
STARTCHAR u
ENCODING 117
SWIDTH 687 0
DWIDTH 11 0
BBX 9 9 0 -2
BITMAP
E380
E380
E380
E380
E380
E380
E380
E780
7B80
ENDCHAR
STARTCHAR z
ENCODING 122
SWIDTH 625 0
DWIDTH 10 0
BBX 8 9 0 -2
BITMAP
FF
FF
0E
1C
38
70
E0
FF
FF
ENDCHAR
STARTCHAR adieresis
ENCODING 228
SWIDTH 750 0
DWIDTH 12 0
BBX 10 14 0 -2
BITMAP
E380
E380
0000
0000
0000
7F00
C380
0380
0F80
7B80
E380
E380
E380
7DC0
ENDCHAR
STARTCHAR udieresis
ENCODING 252
SWIDTH 687 0
DWIDTH 11 0
BBX 9 14 0 -2
BITMAP
E380
E380
0000
0000
0000
E380
E380
E380
E380
E380
E380
E380
E780
7B80
ENDCHAR
ENDFONT
